# xmcd
#
# Track frame offsets:
# 150
# 15375
# 27390
# 42367
# 59047
# 71697
# 87742
# 102817
# 120500
# 133457
# 151602
# 164017
# 180825
# 198215
# 214302
# 234302
# 251370
# 268107
#
# Disc length: 3828 seconds
#
#
# Revision: 1
# Processed by: cddbd v1.5.2PL0 Copyright (c) Steve Scherf et al.
# Submitted via: FreeRIP 2.945 
#
DISCID=fb0ef212
DTITLE=Shania Twain - The Complete Limelight Sessions
DYEAR=2002
DGENRE=Pop
TTITLE0=It's Alright
TTITLE1=Love
TTITLE2=All Fired Up, No Place To Go
TTITLE3=The Heart Is Blind
TTITLE4=For The Love Of Him
TTITLE5=Wild And Wicked
TTITLE6=I Ain't Gonna Eat Out My Heart Anymore
TTITLE7=Send It With Love
TTITLE8=Half Breed
TTITLE9=Hate To Love
TTITLE10=Bite My Lip
TTITLE11=Two Hearts One Love
TTITLE12=Rhythm Made Me Do It
TTITLE13=Luv Eyes
TTITLE14=Lost My Heart
TTITLE15=Don't Give Me That
TTITLE16=It's Alright (Edited Club Mix)
TTITLE17=The Heart Is Blind (Single Version)
EXTD=Jahr: 2002
EXTT0=
EXTT1=
EXTT2=
EXTT3=
EXTT4=
EXTT5=
EXTT6=
EXTT7=
EXTT8=
EXTT9=
EXTT10=
EXTT11=
EXTT12=
EXTT13=
EXTT14=
EXTT15=
EXTT16=
EXTT17=
PLAYORDER=
